<?xml version="1.0" encoding="iso-8859-1"?>
<!-- Generator: Adobe Illustrator 16.0.0, SVG Export Plug-In . SVG Version: 6.00 Build 0)  -->
<!DOCTYPE svg PUBLIC "-//W3C//DTD SVG 1.1//EN" "http://www.w3.org/Graphics/SVG/1.1/DTD/svg11.dtd">
<svg version="1.1" id="Capa_1" xmlns="http://www.w3.org/2000/svg" xmlns:xlink="http://www.w3.org/1999/xlink" x="0px" y="0px"
	 width="17.035px" height="17.035px" viewBox="0 0 17.035 17.035"  fill="red"
	 xml:space="preserve">
<g>
	<g>
		<path d="M8.365,8.052c0.303,0.493-0.468,0.996,0.09,0.949c0.558-0.047,2.208-2.416,2.208-3.034
			C10.036,6.978,9.409,7.763,8.365,8.052z"/>
		<path d="M13.395,5.869l0.316,0.071c0.612,0.138,1.113-0.263,1.113-0.891V5.025c0-0.627-0.501-1.027-1.113-0.89l-0.316,0.071
			c-0.611,0.137-1.112,0.511-1.112,0.831S12.783,5.732,13.395,5.869z"/>
		<path d="M9.605,4.206L9.289,4.135c-0.612-0.138-1.113,0.263-1.113,0.89v0.024c0,0.628,0.501,1.028,1.113,0.891l0.316-0.071
			c0.612-0.137,1.113-0.511,1.113-0.831S10.217,4.343,9.605,4.206z"/>
		<path d="M14.635,8.052c-1.044-0.289-1.67-1.074-2.298-2.085c0,0.618,1.649,2.987,2.208,3.034
			C15.104,9.048,14.332,8.545,14.635,8.052z"/>
		<path d="M16.688,8.081l0.348-0.566l-0.641-0.177c-0.272-0.075-0.528-0.148-0.77-0.222c0.289-0.1,0.55-0.264,0.764-0.484
			c0.375-0.387,0.582-0.924,0.582-1.553l0.002-0.305c0.008-0.912,0.019-1.945-0.5-2.469c-0.27-0.271-0.646-0.372-1.062-0.277
			L15,2.121V1.017h-2.25v2.367c-0.295,0.252-0.564,0.515-0.77,0.762c-0.097-0.035-0.197-0.053-0.301-0.053H11.32
			c-0.104,0-0.204,0.018-0.301,0.053c-0.205-0.247-0.475-0.51-0.77-0.762V1.017H0v4.25h6.052C6.107,6.146,6.62,6.851,7.378,7.116
			C7.136,7.189,6.88,7.262,6.606,7.339l-0.64,0.177L6.12,7.768H0v8.25h10.25V8.352c0.341-0.494,0.641-1.017,0.855-1.535
			c0.069,0.018,0.142,0.027,0.215,0.027h0.359c0.073,0,0.146-0.01,0.215-0.027c0.215,0.519,0.515,1.041,0.855,1.535v7.665H15V10.65
			c0.344,0.223,0.665,0.364,0.928,0.387l0.102,0.004c0.346,0,0.545-0.155,0.65-0.287c0.297-0.364,0.191-0.866,0.068-1.446
			C16.661,8.89,16.541,8.321,16.688,8.081z M16.029,10.525v0.016V10.525c-0.023,0.001-0.033,0.016-0.061,0.014
			c-0.879-0.073-3.271-2.403-3.836-4.565c-0.104,0.219-0.263,0.371-0.453,0.371H11.32c-0.19,0-0.35-0.152-0.453-0.371
			c-0.562,2.162-2.957,4.492-3.836,4.565c-1,0.082,0.25-1.833-0.292-2.719c1.48-0.41,2.573-0.751,3.523-1.77
			c-0.337,0.22-0.76,0.404-1.225,0.509L8.482,6.683C7.409,6.924,6.53,6.221,6.53,5.121V5.08c0-1.101-0.122-2.804,0.952-2.562
			l0.555,0.124c0.948,0.214,2.52,1.528,2.875,2.22c0.104-0.164,0.248-0.268,0.408-0.268h0.359c0.161,0,0.305,0.104,0.408,0.268
			c0.354-0.691,1.926-2.006,2.875-2.22l0.555-0.125c1.073-0.241,0.953,1.462,0.953,2.562V5.12c0,1.101-0.879,1.804-1.953,1.562
			l-0.555-0.124c-0.465-0.104-0.888-0.289-1.225-0.509c0.951,1.019,2.043,1.359,3.523,1.77C15.734,8.68,16.887,10.501,16.029,10.525
			z"/>
	</g>
</g>
<g>
</g>
<g>
</g>
<g>
</g>
<g>
</g>
<g>
</g>
<g>
</g>
<g>
</g>
<g>
</g>
<g>
</g>
<g>
</g>
<g>
</g>
<g>
</g>
<g>
</g>
<g>
</g>
<g>
</g>
</svg>
